<?xml version="1.0" encoding="UTF-8"?>
<svg width="93px" height="91.8727915px" viewBox="0 0 93 91.8727915" version="1.1" xmlns="http://www.w3.org/2000/svg" xmlns:xlink="http://www.w3.org/1999/xlink">
    <title>etat_de_fribourg</title>
    <g id="Page-1" stroke="none" stroke-width="1" fill="none" fill-rule="evenodd">
        <g id="Medium" transform="translate(-518.000000, -3641.000000)" fill="#FFFFFF" fill-rule="nonzero">
            <g id="Group-3" transform="translate(0.000000, 3371.000000)">
                <g id="etat_de_fribourg" transform="translate(518.000000, 270.000000)">
                    <path d="M1,44.0994321 L1,46 C6.4878592,44.6062502 12.3498906,41.185228 15.5927165,38.1443194 C17.7130258,36.117047 19.5838868,33.709661 21.0805757,30.9221614 C21.0805757,30.9221614 21.2052998,30.7954569 21.2052998,30.6687523 C22.5772646,28.1346618 23.5750572,25.0937532 24.3234016,21.5460265 C26.3189868,11.7897779 23.325609,2.03352943 22.7019887,0.76648417 C21.9536442,-0.120447512 20.9558516,0.00625701364 20.2075072,0.00625701364 C20.0827831,0.00625701364 19.833335,0.00625701364 19.7086109,0.00625701364 L1,0.00625701364 L1,22.3062536 L15.3432684,22.3062536 C15.4679924,22.3062536 15.7174406,22.3062536 15.7174406,22.3062536 C16.2163369,22.4329581 16.5905091,22.6863672 16.5905091,23.1931853 C16.5905091,23.3198898 16.5905091,23.4465943 16.5905091,23.5732989 C16.5905091,28.0079573 14.4701999,36.7505696 2.12251665,42.3255687 L1,42.8323868 L1,44.0994321 Z" id="Path"></path>
                    <g id="Group" transform="translate(0.000000, 56.000000)">
                        <polygon id="Path" points="0.504748982 0.127208481 5.42605156 0.127208481 5.42605156 0.890459364 1.51424695 0.890459364 1.51424695 3.18021201 5.17367707 3.18021201 5.17367707 3.9434629 1.51424695 3.9434629 1.51424695 6.36042403 5.42605156 6.36042403 5.42605156 7.12367491 0.504748982 7.12367491"></polygon>
                        <polygon id="Path" points="8.32835821 0.890459364 6.05698779 0.890459364 6.05698779 0.127208481 11.7354138 0.127208481 11.7354138 0.890459364 9.33785617 0.890459364 9.33785617 7.25088339 8.32835821 7.25088339"></polygon>
                        <path d="M13.6282225,0.127208481 L14.6377205,0.127208481 L17.4138399,7.25088339 L16.4043419,7.25088339 L15.6472185,5.08833922 L12.6187246,5.08833922 L11.8616011,7.25088339 L10.8521031,7.25088339 L13.6282225,0.127208481 Z M12.8710991,4.32508834 L15.2686567,4.32508834 L14.1329715,1.01766784 L14.1329715,1.01766784 L12.8710991,4.32508834 Z" id="Shape"></path>
                        <polygon id="Path" points="19.0542741 0.890459364 16.6567164 0.890459364 16.6567164 0.127208481 22.3351425 0.127208481 22.3351425 0.890459364 19.9375848 0.890459364 19.9375848 7.25088339 19.0542741 7.25088339"></polygon>
                        <path d="M26.2469471,0.127208481 L28.6445047,0.127208481 C30.7896879,0.127208481 32.0515604,1.27208481 32.0515604,3.56183746 C32.0515604,5.97879859 31.0420624,7.25088339 28.6445047,7.25088339 L26.2469471,7.25088339 L26.2469471,0.127208481 Z M27.1302578,6.48763251 L28.6445047,6.48763251 C29.275441,6.48763251 31.0420624,6.36042403 31.0420624,3.68904594 C31.0420624,2.03533569 30.4111262,1.01766784 28.6445047,1.01766784 L27.0040706,1.01766784 L27.0040706,6.48763251 L27.1302578,6.48763251 Z" id="Shape"></path>
                        <polygon id="Path" points="33.3134328 0.127208481 38.2347354 0.127208481 38.2347354 0.890459364 34.3229308 0.890459364 34.3229308 3.18021201 37.9823609 3.18021201 37.9823609 3.9434629 34.3229308 3.9434629 34.3229308 6.36042403 38.2347354 6.36042403 38.2347354 7.12367491 33.3134328 7.12367491 33.3134328 0.127208481"></polygon>
                        <polygon id="Path" points="42.5251018 0.127208481 47.1940299 0.127208481 47.1940299 0.890459364 43.5345997 0.890459364 43.5345997 3.18021201 46.8154681 3.18021201 46.8154681 3.9434629 43.5345997 3.9434629 43.5345997 7.25088339 42.651289 7.25088339 42.651289 0.127208481"></polygon>
                        <path d="M48.3297151,0.127208481 L51.6105834,0.127208481 C52.8724559,0.127208481 53.7557666,0.890459364 53.7557666,2.03533569 C53.7557666,2.92579505 53.3772049,3.56183746 52.4938942,3.81625442 L52.4938942,3.81625442 C53.3772049,3.9434629 53.5033921,4.5795053 53.5033921,5.34275618 C53.5033921,5.97879859 53.5033921,6.86925795 53.8819539,7.25088339 L52.8724559,7.25088339 C52.6200814,6.99646643 52.7462687,6.23321555 52.6200814,5.46996466 C52.4938942,4.83392226 52.3677069,4.19787986 51.4843962,4.19787986 L49.339213,4.19787986 L49.339213,7.25088339 L48.4559023,7.25088339 L48.4559023,0.127208481 L48.3297151,0.127208481 Z M51.2320217,3.43462898 C52.1153324,3.43462898 52.8724559,3.18021201 52.8724559,2.16254417 C52.8724559,1.52650177 52.4938942,0.890459364 51.6105834,0.890459364 L49.339213,0.890459364 L49.339213,3.30742049 L51.2320217,3.30742049 L51.2320217,3.43462898 Z" id="Shape"></path>
                        <polygon id="Path" points="55.3962008 0.127208481 56.2795115 0.127208481 56.2795115 7.25088339 55.3962008 7.25088339"></polygon>
                        <path d="M58.046133,0.127208481 L60.5698779,0.127208481 C61.2008141,0.127208481 61.9579376,0.127208481 62.4626866,0.381625442 C62.9674355,0.636042403 63.3459973,1.14487633 63.3459973,1.90812721 C63.3459973,2.67137809 62.9674355,3.18021201 62.3364993,3.56183746 L62.3364993,3.56183746 C63.21981,3.68904594 63.724559,4.45229682 63.724559,5.2155477 C63.724559,6.23321555 62.9674355,7.25088339 61.5793758,7.25088339 L58.1723202,7.25088339 L58.1723202,0.127208481 L58.046133,0.127208481 Z M59.0556309,3.18021201 L60.9484396,3.18021201 C61.9579376,3.18021201 62.4626866,2.79858657 62.4626866,2.03533569 C62.4626866,1.01766784 61.8317503,0.890459364 60.9484396,0.890459364 L59.0556309,0.890459364 L59.0556309,3.18021201 Z M59.0556309,6.48763251 L61.4531886,6.48763251 C62.2103121,6.48763251 62.7150611,5.97879859 62.7150611,5.2155477 C62.7150611,4.32508834 61.9579376,4.07067138 61.2008141,4.07067138 L59.0556309,4.07067138 L59.0556309,6.48763251 L59.0556309,6.48763251 Z" id="Shape"></path>
                        <path d="M68.0149254,0 C70.2862958,0 71.421981,1.78091873 71.421981,3.68904594 C71.421981,5.59717314 70.2862958,7.37809187 68.0149254,7.37809187 C65.743555,7.37809187 64.6078697,5.59717314 64.6078697,3.68904594 C64.6078697,1.78091873 65.743555,0 68.0149254,0 Z M68.0149254,6.61484099 C69.7815468,6.61484099 70.412483,5.08833922 70.412483,3.68904594 C70.412483,2.28975265 69.6553596,0.763250883 68.0149254,0.763250883 C66.2483039,0.763250883 65.6173677,2.28975265 65.6173677,3.68904594 C65.6173677,5.08833922 66.2483039,6.61484099 68.0149254,6.61484099 Z" id="Shape"></path>
                        <path d="M78.3622795,4.70671378 C78.3622795,6.48763251 77.3527815,7.50530035 75.5861601,7.50530035 C73.8195387,7.50530035 72.6838535,6.61484099 72.6838535,4.70671378 L72.6838535,0.127208481 L73.5671642,0.127208481 L73.5671642,4.70671378 C73.5671642,5.97879859 74.3242877,6.61484099 75.4599729,6.61484099 C76.5956581,6.61484099 77.3527815,5.97879859 77.3527815,4.70671378 L77.3527815,0.127208481 L78.3622795,0.127208481 L78.3622795,4.70671378 Z" id="Path"></path>
                        <path d="M80.0027137,0.127208481 L83.4097693,0.127208481 C84.6716418,0.127208481 85.5549525,0.890459364 85.5549525,2.03533569 C85.5549525,2.92579505 85.1763908,3.56183746 84.2930801,3.81625442 L84.2930801,3.81625442 C85.1763908,3.9434629 85.302578,4.5795053 85.302578,5.34275618 C85.302578,5.97879859 85.302578,6.86925795 85.6811398,7.25088339 L84.6716418,7.25088339 C84.4192673,6.99646643 84.5454545,6.23321555 84.4192673,5.46996466 C84.2930801,4.83392226 84.1668928,4.19787986 83.2835821,4.19787986 L81.0122117,4.19787986 L81.0122117,7.25088339 L80.1289009,7.25088339 L80.1289009,0.127208481 L80.0027137,0.127208481 Z M82.9050204,3.43462898 C83.7883311,3.43462898 84.5454545,3.18021201 84.5454545,2.16254417 C84.5454545,1.52650177 84.1668928,0.890459364 83.2835821,0.890459364 L81.0122117,0.890459364 L81.0122117,3.30742049 L82.9050204,3.30742049 L82.9050204,3.43462898 Z" id="Shape"></path>
                        <path d="M92.2428765,6.36042403 C91.7381275,7.12367491 90.8548168,7.37809187 89.9715061,7.37809187 C87.8263229,7.37809187 86.5644505,5.59717314 86.5644505,3.81625442 C86.5644505,1.78091873 87.7001357,0 89.9715061,0 C91.4857531,0 92.7476255,0.636042403 93,2.41696113 L92.1166893,2.41696113 C91.990502,1.39929329 91.1071913,0.890459364 89.9715061,0.890459364 C88.2048847,0.890459364 87.5739484,2.41696113 87.5739484,3.9434629 C87.5739484,5.46996466 88.4572592,6.74204947 89.9715061,6.74204947 C91.4857531,6.74204947 92.2428765,5.72438163 92.2428765,4.45229682 L89.9715061,4.45229682 L89.9715061,3.68904594 L93,3.68904594 L93,7.37809187 L92.3690638,7.37809187 L92.2428765,6.36042403 Z" id="Path"></path>
                        <path d="M4.54274084,16.409894 C4.4165536,15.3922261 3.78561737,15.0106007 2.7761194,15.0106007 C2.01899593,15.0106007 1.13568521,15.2650177 1.13568521,16.2826855 C1.13568521,17.1731449 2.27137042,17.3003534 3.40705563,17.5547703 C4.54274084,17.8091873 5.67842605,18.1908127 5.67842605,19.590106 C5.67842605,21.1166078 4.1641791,21.7526502 2.90230665,21.7526502 C1.26187246,21.7526502 0,20.9893993 0,19.2084806 L0.883310719,19.2084806 C0.883310719,20.3533569 1.89280868,20.8621908 2.90230665,20.8621908 C3.78561737,20.8621908 4.66892809,20.6077739 4.66892809,19.590106 C4.66892809,18.5724382 3.53324288,18.4452297 2.39755767,18.1908127 C1.26187246,17.9363958 0.126187246,17.5547703 0.126187246,16.2826855 C0.126187246,14.8833922 1.3880597,14.2473498 2.64993216,14.2473498 C4.03799186,14.2473498 5.17367707,14.8833922 5.29986431,16.5371025 L4.54274084,16.5371025 L4.54274084,16.409894 Z" id="Path"></path>
                        <polygon id="Path" points="8.32835821 15.1378092 5.93080054 15.1378092 5.93080054 14.3745583 11.6092266 14.3745583 11.6092266 15.1378092 9.21166893 15.1378092 9.21166893 21.4982332 8.32835821 21.4982332"></polygon>
                        <path d="M13.6282225,14.3745583 L14.6377205,14.3745583 L17.4138399,21.4982332 L16.4043419,21.4982332 L15.6472185,19.335689 L12.6187246,19.335689 L11.8616011,21.4982332 L10.8521031,21.4982332 L13.6282225,14.3745583 Z M12.8710991,18.5724382 L15.2686567,18.5724382 L14.1329715,15.2650177 L14.1329715,15.2650177 L12.8710991,18.5724382 Z" id="Shape"></path>
                        <path d="M20.1899593,14.3745583 L21.1994573,14.3745583 L23.9755767,21.4982332 L22.9660787,21.4982332 L22.2089552,19.335689 L19.1804613,19.335689 L18.4233379,21.4982332 L17.4138399,21.4982332 L20.1899593,14.3745583 Z M19.4328358,18.5724382 L21.8303935,18.5724382 L20.6947083,15.2650177 L20.6947083,15.2650177 L19.4328358,18.5724382 Z" id="Shape"></path>
                        <polygon id="Path" points="25.6160109 15.1378092 23.2184532 15.1378092 23.2184532 14.3745583 28.8968792 14.3745583 28.8968792 15.1378092 26.4993216 15.1378092 26.4993216 21.4982332 25.6160109 21.4982332 25.6160109 15.1378092"></polygon>
                        <polygon id="Path" points="32.8086839 14.3745583 37.4776119 14.3745583 37.4776119 15.1378092 33.8181818 15.1378092 33.8181818 17.4275618 37.0990502 17.4275618 37.0990502 18.1908127 33.8181818 18.1908127 33.8181818 21.4982332 32.9348711 21.4982332 32.9348711 14.3745583"></polygon>
                        <path d="M38.6132972,14.3745583 L41.8941655,14.3745583 C43.156038,14.3745583 44.0393487,15.1378092 44.0393487,16.2826855 C44.0393487,17.1731449 43.660787,17.8091873 42.7774763,18.0636042 L42.7774763,18.0636042 C43.5345997,18.1908127 43.7869742,18.8268551 43.7869742,19.590106 C43.7869742,20.2261484 43.7869742,21.1166078 44.165536,21.4982332 L43.156038,21.4982332 C42.9036635,21.2438163 43.0298507,20.4805654 42.9036635,19.7173145 C42.7774763,19.0812721 42.651289,18.4452297 41.7679783,18.4452297 L39.4966079,18.4452297 L39.4966079,21.4982332 L38.6132972,21.4982332 L38.6132972,14.3745583 Z M41.5156038,17.6819788 C42.3989145,17.6819788 43.156038,17.4275618 43.156038,16.409894 C43.156038,15.7738516 42.7774763,15.1378092 41.8941655,15.1378092 L39.6227951,15.1378092 L39.6227951,17.5547703 L41.5156038,17.5547703 L41.5156038,17.6819788 Z" id="Shape"></path>
                        <polygon id="Path" points="45.5535957 14.3745583 50.4748982 14.3745583 50.4748982 15.1378092 46.5630936 15.1378092 46.5630936 17.4275618 50.2225237 17.4275618 50.2225237 18.1908127 46.5630936 18.1908127 46.5630936 20.6077739 50.4748982 20.6077739 50.4748982 21.3710247 45.5535957 21.3710247"></polygon>
                        <polygon id="Path" points="51.8629579 14.3745583 52.7462687 14.3745583 52.7462687 21.4982332 51.8629579 21.4982332"></polygon>
                        <path d="M54.5128901,14.3745583 L57.036635,14.3745583 C57.6675712,14.3745583 58.4246947,14.3745583 58.9294437,14.6289753 C59.4341927,14.8833922 59.8127544,15.3922261 59.8127544,16.155477 C59.8127544,16.9187279 59.4341927,17.4275618 58.8032564,17.8091873 L58.8032564,17.8091873 C59.6865672,17.9363958 60.1913161,18.6996466 60.1913161,19.4628975 C60.1913161,20.4805654 59.4341927,21.4982332 58.046133,21.4982332 L54.6390773,21.4982332 L54.6390773,14.3745583 L54.5128901,14.3745583 Z M55.5223881,17.4275618 L57.4151967,17.4275618 C58.4246947,17.4275618 58.9294437,17.0459364 58.9294437,16.2826855 C58.9294437,15.2650177 58.2985075,15.1378092 57.4151967,15.1378092 L55.5223881,15.1378092 L55.5223881,17.4275618 Z M55.5223881,20.7349823 L57.9199457,20.7349823 C58.6770692,20.7349823 59.1818182,20.2261484 59.1818182,19.4628975 C59.1818182,18.5724382 58.4246947,18.3180212 57.6675712,18.3180212 L55.5223881,18.3180212 L55.5223881,20.7349823 L55.5223881,20.7349823 Z" id="Shape"></path>
                        <path d="M67.1316147,18.9540636 C67.1316147,20.7349823 66.1221167,21.7526502 64.3554953,21.7526502 C62.5888738,21.7526502 61.4531886,20.8621908 61.4531886,18.9540636 L61.4531886,14.3745583 L62.3364993,14.3745583 L62.3364993,18.9540636 C62.3364993,20.2261484 63.0936228,20.8621908 64.229308,20.8621908 C65.3649932,20.8621908 66.1221167,20.2261484 66.1221167,18.9540636 L66.1221167,14.3745583 L67.0054274,14.3745583 L67.0054274,18.9540636 L67.1316147,18.9540636 Z" id="Path"></path>
                        <path d="M68.7720488,14.3745583 L72.0529172,14.3745583 C73.3147897,14.3745583 74.1981004,15.1378092 74.1981004,16.2826855 C74.1981004,17.1731449 73.8195387,17.8091873 72.936228,18.0636042 L72.936228,18.0636042 C73.6933514,18.1908127 73.9457259,18.8268551 73.9457259,19.590106 C73.9457259,20.2261484 73.9457259,21.1166078 74.3242877,21.4982332 L73.3147897,21.4982332 C73.0624152,21.2438163 73.1886024,20.4805654 73.0624152,19.7173145 C72.936228,19.0812721 72.8100407,18.4452297 71.92673,18.4452297 L69.6553596,18.4452297 L69.6553596,21.4982332 L68.7720488,21.4982332 L68.7720488,14.3745583 Z M71.6743555,17.6819788 C72.5576662,17.6819788 73.3147897,17.4275618 73.3147897,16.409894 C73.3147897,15.7738516 72.936228,15.1378092 72.0529172,15.1378092 L69.7815468,15.1378092 L69.7815468,17.5547703 L71.6743555,17.5547703 L71.6743555,17.6819788 Z" id="Shape"></path>
                        <path d="M81.0122117,20.6077739 C80.5074627,21.3710247 79.624152,21.6254417 78.7408412,21.6254417 C76.5956581,21.6254417 75.3337856,19.844523 75.3337856,18.0636042 C75.3337856,16.0282686 76.4694708,14.2473498 78.7408412,14.2473498 C80.2550882,14.2473498 81.5169607,14.8833922 81.7693351,16.664311 L80.8860244,16.664311 C80.7598372,15.6466431 79.8765265,15.1378092 78.7408412,15.1378092 C76.9742198,15.1378092 76.3432836,16.664311 76.3432836,18.1908127 C76.3432836,19.7173145 77.2265943,20.9893993 78.7408412,20.9893993 C80.2550882,20.9893993 81.0122117,19.9717314 81.0122117,18.6996466 L78.7408412,18.6996466 L78.7408412,17.9363958 L81.7693351,17.9363958 L81.7693351,21.6254417 L81.1383989,21.6254417 L81.0122117,20.6077739 Z" id="Path"></path>
                        <polygon id="Path" points="4.92130258 35.745583 4.29036635 35.745583 3.15468114 31.6749117 3.15468114 31.6749117 2.01899593 35.745583 1.3880597 35.745583 0.126187246 30.9116608 0.757123474 30.9116608 1.76662144 34.8551237 1.76662144 34.8551237 2.90230665 30.7844523 3.65943012 30.7844523 4.54274084 34.8551237 4.54274084 34.8551237 5.55223881 30.7844523 6.18317503 30.7844523"></polygon>
                        <polygon id="Path" points="11.3568521 35.745583 10.7259159 35.745583 9.59023066 31.6749117 9.59023066 31.6749117 8.45454545 35.745583 7.82360923 35.745583 6.56173677 30.9116608 7.192673 30.9116608 8.20217096 34.8551237 8.20217096 34.8551237 9.33785617 30.7844523 10.0949796 30.7844523 10.9782904 34.8551237 10.9782904 34.8551237 11.9877883 30.7844523 12.6187246 30.7844523"></polygon>
                        <polygon id="Path" points="17.7924016 35.745583 17.1614654 35.745583 16.0257802 31.6749117 16.0257802 31.6749117 14.890095 35.745583 14.2591588 35.745583 12.9972863 30.9116608 13.6282225 30.9116608 14.6377205 34.9823322 14.6377205 34.9823322 15.7734057 30.9116608 16.5305292 30.9116608 17.5400271 34.9823322 17.5400271 34.9823322 18.5495251 30.9116608 19.0542741 30.9116608"></polygon>
                        <polygon id="Path" points="19.3066486 34.9823322 20.063772 34.9823322 20.063772 35.745583 19.3066486 35.745583"></polygon>
                        <polygon id="Path" points="21.3256445 30.7844523 24.4803256 30.7844523 24.4803256 31.2932862 21.9565807 31.2932862 21.9565807 32.819788 24.2279512 32.819788 24.2279512 33.3286219 21.9565807 33.3286219 21.9565807 35.6183746 21.3256445 35.6183746"></polygon>
                        <path d="M25.3636364,30.7844523 L27.6350068,30.7844523 C28.5183175,30.7844523 29.1492537,31.2932862 29.1492537,32.0565371 C29.1492537,32.6925795 28.8968792,33.0742049 28.265943,33.3286219 L28.265943,33.3286219 C28.770692,33.4558304 28.8968792,33.8374558 29.0230665,34.3462898 C29.0230665,34.8551237 29.0230665,35.3639576 29.275441,35.745583 L28.5183175,35.745583 C28.3921303,35.4911661 28.3921303,34.9823322 28.3921303,34.6007067 C28.265943,34.0918728 28.265943,33.7102473 27.6350068,33.7102473 L26.1207598,33.7102473 L26.1207598,35.745583 L25.3636364,35.745583 L25.3636364,30.7844523 Z M27.3826323,33.0742049 C28.0135685,33.0742049 28.5183175,32.9469965 28.5183175,32.1837456 C28.5183175,31.6749117 28.265943,31.2932862 27.6350068,31.2932862 L25.9945726,31.2932862 L25.9945726,32.9469965 L27.3826323,32.9469965 L27.3826323,33.0742049 Z" id="Shape"></path>
                        <polygon id="Path" points="30.1587517 34.9823322 30.9158752 34.9823322 30.9158752 35.745583 30.1587517 35.745583"></polygon>
                        <path d="M35.5848033,32.3109541 C35.458616,31.6749117 34.953867,31.2932862 34.1967436,31.2932862 C33.0610583,31.2932862 32.5563094,32.3109541 32.5563094,33.3286219 C32.5563094,34.4734982 33.0610583,35.3639576 34.1967436,35.3639576 C35.0800543,35.3639576 35.5848033,34.7279152 35.5848033,33.9646643 L36.2157395,33.9646643 C36.0895522,35.2367491 35.3324288,35.8727915 34.0705563,35.8727915 C32.5563094,35.8727915 31.7991859,34.7279152 31.7991859,33.3286219 C31.7991859,31.9293286 32.5563094,30.7844523 34.0705563,30.7844523 C35.0800543,30.7844523 35.963365,31.2932862 36.0895522,32.3109541 L35.5848033,32.3109541 Z" id="Path"></path>
                        <polygon id="Path" points="37.2252374 30.7844523 37.8561737 30.7844523 37.8561737 32.819788 40.3799186 32.819788 40.3799186 30.7844523 41.0108548 30.7844523 41.0108548 35.6183746 40.3799186 35.6183746 40.3799186 33.3286219 37.8561737 33.3286219 37.8561737 35.6183746 37.2252374 35.6183746"></polygon>
                    </g>
                </g>
            </g>
        </g>
    </g>
</svg>