<?xml version="1.0" encoding="UTF-8"?>
<svg width="116px" height="41px" viewBox="0 0 116 41" version="1.1" xmlns="http://www.w3.org/2000/svg" xmlns:xlink="http://www.w3.org/1999/xlink">
    <title>fri-son</title>
    <g id="Page-1" stroke="none" stroke-width="1" fill="none" fill-rule="evenodd">
        <g id="Medium" transform="translate(-835.000000, -3687.000000)" fill="#FFFFFF" fill-rule="nonzero">
            <g id="Group-3" transform="translate(0.000000, 3371.000000)">
                <g id="fri-son" transform="translate(835.000000, 316.000000)">
                    <g id="Group">
                        <path d="M78.8005272,15.9853143 C73.4139318,15.9853143 68.8739504,19.4878857 67.1824599,24.3440429 C66.2889406,21.8008714 64.6206132,19.6237714 62.4525405,18.1348857 C60.6712926,16.9078143 59.4917082,14.8601571 59.4917082,12.5342857 C59.4917082,8.8437 62.4959714,5.83254286 66.1713875,5.83254286 L66.1713875,0.0550571429 C59.3614153,0.0550571429 53.7889356,5.61348571 53.7889356,12.5348714 C53.7889356,16.8422143 55.9431105,20.6481857 59.212592,22.9049429 L59.212592,22.9137286 C61.0042632,24.1279143 62.1826895,26.1896286 62.1826895,28.5219429 C62.1826895,32.2066714 59.1784263,35.2219286 55.5047475,35.2219286 C51.8495991,35.2219286 48.8800807,32.2066714 48.8800807,28.5219429 L43.1663056,28.5219429 C43.1657265,35.3859286 48.714464,41 55.5035893,41 C60.8838147,41 65.4793878,37.5220286 67.1813017,32.6547429 C68.8785831,37.5027 73.4527302,41 78.8005272,41 C85.6186064,41 91.1922443,35.4404 91.1922443,28.5201857 C91.1928234,21.6011429 85.6394533,15.9853143 78.8005272,15.9853143 M78.8005272,35.2213429 C75.1558023,35.2213429 72.1770185,32.2055 72.1770185,28.5207714 C72.1770185,24.8026571 75.1569604,21.7657286 78.8005272,21.7657286 C82.4759433,21.7657286 85.4784692,24.8044143 85.4784692,28.5207714 C85.4784692,32.2049143 82.4759433,35.2213429 78.8005272,35.2213429" id="Shape"></path>
                        <path d="M110.210366,40.4412286 L116,40.4412286 L116,28.5201857 C116,21.6011429 110.374245,15.9841429 103.586857,15.9841429 C96.7432982,15.9841429 91.1922443,21.6011429 91.1922443,28.5201857 L91.1922443,40.4541143 L96.9083357,40.4541143 L96.9083357,28.5201857 C96.9083357,24.8354571 99.9114408,21.7651429 103.586857,21.7651429 C107.229265,21.7651429 110.210366,24.8354571 110.210366,28.5201857 L110.210366,40.4412286 L110.210366,40.4412286 Z" id="Path"></path>
                        <path d="M33.4169271,15.4546571 L33.4169271,15.4546571 C29.6187462,15.4546571 26.2091275,17.2211714 23.9402949,19.9757857 C21.6731996,17.2205857 18.2525784,15.4546571 14.4538184,15.4546571 L12.9186793,15.4546571 L12.9186793,12.4798143 C12.9186793,8.79508571 15.9217844,5.781 19.5977795,5.781 L19.5977795,0 C12.7878074,0 7.20432512,5.56194286 7.20432512,12.4798143 L7.20432512,15.4546571 L0,15.4546571 L0,21.2339 L7.20432512,21.2339 L7.20432512,40.4869143 L12.9186793,40.4869143 L12.9186793,21.2339 L14.4538184,21.2339 C18.1072295,21.2339 21.077327,24.2397857 21.077327,27.9344714 L21.077327,40.4599714 L26.7934185,40.4599714 L26.7934185,27.9344714 C26.7934185,24.2392 29.7739394,21.2339 33.4169271,21.2339 L34.9543825,21.2339 L34.9543825,40.4599714 L40.6669995,40.4599714 L40.6669995,15.4546571 L33.4169271,15.4546571 Z" id="Path"></path>
                        <polygon id="Path" points="52.2335287 15.4546571 43.1396679 21.2339 43.1396679 27.1584 52.2335287 21.5238286"></polygon>
                    </g>
                    <rect id="Rectangle" x="35" y="0" width="6" height="13"></rect>
                </g>
            </g>
        </g>
    </g>
</svg>