<?xml version="1.0" encoding="UTF-8"?>
<svg width="100px" height="21px" viewBox="0 0 100 21" version="1.1" xmlns="http://www.w3.org/2000/svg" xmlns:xlink="http://www.w3.org/1999/xlink">
    <title>logo</title>
    <g id="Page-1" stroke="none" stroke-width="1" fill="none" fill-rule="evenodd">
        <g id="Medium" transform="translate(-29.000000, -3411.000000)" fill="#FFFFFF">
            <g id="Group-3" transform="translate(0.000000, 3371.000000)">
                <g id="logo" transform="translate(29.000000, 40.000000)">
                    <path d="M9.99206979,11.6476578 L9.99206979,11.2199593 C9.99206979,10.9348269 9.88011382,10.6496945 9.68419088,10.4215886 L8.7045762,9.45213849 C8.50865326,9.25254582 8.22876335,9.13849287 7.92088445,9.13849287 L4.42226058,9.13849287 C4.14237067,9.13849287 3.86248076,9.25254582 3.63856883,9.45213849 L2.68694314,10.4215886 C2.4910202,10.6211813 2.37906423,10.9063136 2.37906423,11.2199593 L2.37906423,11.6476578 C2.37906423,12.2749491 2.88286607,12.7596741 3.47063488,12.7596741 L8.90049914,12.7596741 C9.48826795,12.7881874 9.99206979,12.2749491 9.99206979,11.6476578 M12.371134,10.4215886 L12.371134,13.7576375 C12.371134,14.3849287 11.8673322,14.8696538 11.2795634,14.8696538 L3.47063488,14.8696538 C2.85487708,14.8696538 2.37906423,15.3828921 2.37906423,15.9816701 L2.37906423,16.7800407 C2.37906423,17.0651731 2.4910202,17.3503055 2.68694314,17.5784114 L3.63856883,18.5478615 C3.83449177,18.7474542 4.11438168,18.8615071 4.42226058,18.8615071 L8.3966973,18.8615071 C8.67658721,18.8615071 8.95647712,18.7474542 9.18038905,18.5478615 L10.0200588,17.6924644 C10.4398936,17.2647658 11.1396184,17.2647658 11.5594533,17.6924644 C11.9792881,18.1201629 11.9792881,18.8329939 11.5594533,19.2606925 L10.1600037,20.6863544 C9.96408079,20.885947 9.68419088,21 9.37631198,21 L3.35867892,21 C3.07878901,21 2.7988991,20.885947 2.57498717,20.6863544 L0.307878901,18.3767821 C0.111955964,18.1771894 0,17.892057 0,17.6069246 L0,10.4215886 C0,10.1364562 0.111955964,9.85132383 0.307878901,9.62321792 L2.57498717,7.31364562 C2.77091011,7.11405295 3.05080002,7 3.35867892,7 L8.98446611,7 C9.26435602,7 9.54424593,7.11405295 9.76815786,7.31364562 L12.0352661,9.62321792 C12.2311891,9.85132383 12.371134,10.1364562 12.371134,10.4215886" id="Fill-1"></path>
                    <path d="M17.5262361,7.30404463 L17.5262361,7.30404463 C18.0905383,7.30404463 18.556701,7.83403068 18.556701,8.47559275 L18.556701,19.8284519 C18.556701,20.4700139 18.0905383,21 17.5262361,21 C16.9619339,21 16.4957713,20.4700139 16.4957713,19.8284519 L16.4957713,8.47559275 C16.4712364,7.83403068 16.9373991,7.30404463 17.5262361,7.30404463 M17.5262361,1 L17.5262361,1 C18.0905383,1 18.556701,1.52998605 18.556701,2.17154812 L18.556701,2.86889819 C18.556701,3.51046025 18.0905383,4.0404463 17.5262361,4.0404463 C16.9619339,4.0404463 16.4957713,3.51046025 16.4957713,2.86889819 L16.4957713,2.17154812 C16.4712364,1.52998605 16.9373991,1 17.5262361,1" id="Fill-3"></path>
                    <path d="M30.7882107,20.6528926 L26.1587244,16.1115702 C25.437246,15.3884298 24.1746589,15.9090909 24.1746589,16.892562 L24.1746589,19.9008264 C24.1746589,20.5082645 23.6636117,21 23.0323181,21 L22.7918253,21 C22.1605317,21 21.6494845,20.5082645 21.6494845,19.9008264 L21.6494845,1.09917355 C21.6494845,0.491735537 22.1605317,0 22.7918253,0 L23.0323181,0 C23.6636117,0 24.1746589,0.491735537 24.1746589,1.09917355 L24.1746589,10.6446281 C24.1746589,11.6280992 25.437246,12.1487603 26.1587244,11.4256198 L30.5777795,7.08677686 C30.7882107,6.88429752 31.0888267,6.73966942 31.3894427,6.73966942 C32.4115371,6.73966942 32.9225843,7.92561983 32.2011059,8.61983471 L27.8722356,12.9008264 C27.4213116,13.3347107 27.4213116,14.0289256 27.8722356,14.4628099 L32.6520299,19.0909091 C33.3735082,19.785124 32.8624611,20.9710744 31.8403667,20.9710744 L31.6299355,20.9710744 C31.2992579,21 31.0287035,20.8842975 30.7882107,20.6528926" id="Fill-5"></path>
                    <path d="M46.0918463,16.1142857 L46.0918463,11.8857143 C46.0918463,11.1428571 45.8106842,10.4571429 45.3045923,9.94285714 C44.7703843,9.42857143 44.0955951,9.14285714 43.3645736,9.14285714 L41.1433927,9.14285714 C40.4123711,9.14285714 39.737582,9.42857143 39.2314902,9.94285714 C38.7253983,10.4571429 38.4442362,11.1714286 38.4442362,11.8857143 L38.4442362,16.1142857 C38.4442362,16.8571429 38.7253983,17.5428571 39.2314902,18.0571429 C39.737582,18.5714286 40.4404873,18.8571429 41.1433927,18.8571429 L43.3645736,18.8571429 C44.0955951,18.8571429 44.7703843,18.5714286 45.2764761,18.0571429 C45.8106842,17.5428571 46.0918463,16.8285714 46.0918463,16.1142857 M48.4536082,11.0857143 L48.4536082,16.9142857 C48.4536082,17.6571429 48.1724461,18.3428571 47.6663543,18.8571429 L46.3448922,20.2 C45.8388004,20.7142857 45.135895,21 44.4329897,21 L40.1030928,21 C39.3720712,21 38.6972821,20.7142857 38.1911903,20.2 L36.8697282,18.8571429 C36.3636364,18.3428571 36.0824742,17.6285714 36.0824742,16.9142857 L36.0824742,11.0857143 C36.0824742,10.3428571 36.3636364,9.65714286 36.8697282,9.14285714 L38.1911903,7.8 C38.6972821,7.28571429 39.4001874,7 40.1030928,7 L44.4329897,7 C45.1640112,7 45.8388004,7.28571429 46.3448922,7.8 L47.6663543,9.14285714 C48.1724461,9.65714286 48.4536082,10.3428571 48.4536082,11.0857143" id="Fill-7"></path>
                    <path d="M63.9175258,9.8340081 L63.9175258,20.1497976 C63.9175258,20.6032389 63.540887,20.9716599 63.0773317,20.9716599 L62.295082,20.9716599 C61.8315266,20.9716599 61.4548879,20.6032389 61.4548879,20.1497976 L61.4548879,10.7408907 C61.4548879,10.51417 61.3679712,10.3157895 61.194138,10.145749 L60.4408605,9.40890688 C60.2959994,9.26720648 60.0642217,9.15384615 59.832444,9.15384615 L57.1090562,9.15384615 C56.8772785,9.15384615 56.6744731,9.2388664 56.5006398,9.40890688 L54.2697796,11.5910931 C54.1249185,11.7327935 54.0090297,11.9595142 54.0090297,12.1862348 L54.0090297,20.1781377 C54.0090297,20.6315789 53.6323909,21 53.1688356,21 L52.3865859,21 C51.9230305,21 51.5463918,20.6315789 51.5463918,20.1781377 L51.5463918,7.85020243 C51.5463918,7.39676113 51.9230305,7.02834008 52.3865859,7.02834008 L52.9660301,7.02834008 C53.4295855,7.02834008 53.777252,7.36842105 53.8062242,7.82186235 C53.8351964,8.53036437 54.7333349,8.87044534 55.2548347,8.36032389 L56.384751,7.25506073 C56.529612,7.11336032 56.7613897,7 56.9931674,7 L61.0203047,7 C61.2520824,7 61.4548879,7.08502024 61.6287211,7.25506073 L63.6567759,9.2388664 C63.8306091,9.40890688 63.9175258,9.60728745 63.9175258,9.8340081" id="Fill-9"></path>
                    <path d="M69.0721649,7.30404463 L69.0721649,7.30404463 C69.6367207,7.30404463 70.1030928,7.83403068 70.1030928,8.47559275 L70.1030928,19.8284519 C70.1030928,20.4700139 69.6367207,21 69.0721649,21 C68.5076092,21 68.0412371,20.4700139 68.0412371,19.8284519 L68.0412371,8.47559275 C68.0412371,7.83403068 68.5076092,7.30404463 69.0721649,7.30404463 M69.0721649,1 L69.0721649,1 C69.6367207,1 70.1030928,1.52998605 70.1030928,2.17154812 L70.1030928,2.86889819 C70.1030928,3.51046025 69.6367207,4.0404463 69.0721649,4.0404463 C68.5076092,4.0404463 68.0412371,3.51046025 68.0412371,2.86889819 L68.0412371,2.17154812 C68.0412371,1.52998605 68.5076092,1 69.0721649,1" id="Fill-11"></path>
                    <path d="M85.2269364,19.2642276 L83.7154967,20.6869919 C83.5038951,20.8861789 83.2016072,21 82.8690904,21 L76.8233316,21 C76.5210436,21 76.2187557,20.8861789 75.9769254,20.6869919 L73.528393,18.3821138 C73.3167915,18.1829268 73.1958763,17.898374 73.1958763,17.5853659 L73.1958763,10.4146341 C73.1958763,10.1300813 73.3167915,9.84552846 73.528393,9.61788618 L75.9769254,7.31300813 C76.1885269,7.11382114 76.4908149,7 76.8233316,7 L82.7179465,7 C83.0202344,7 83.3225223,7.11382114 83.5643527,7.31300813 L85.0757924,8.73577236 C85.5292243,9.16260163 85.5292243,9.87398374 85.0757924,10.300813 C84.6223605,10.7276423 83.8666406,10.7276423 83.4132087,10.300813 L82.5365737,9.47560976 C82.3249721,9.27642276 82.0226842,9.16260163 81.6901675,9.16260163 L77.9720258,9.16260163 C77.6697378,9.16260163 77.3674499,9.27642276 77.1256195,9.47560976 L76.1280693,10.4146341 C75.9164678,10.6138211 75.7955526,10.898374 75.7955526,11.2113821 L75.7955526,16.7601626 C75.7955526,17.0447154 75.9164678,17.3292683 76.1280693,17.5569106 L77.1256195,18.495935 C77.3372211,18.695122 77.639509,18.8089431 77.9720258,18.8089431 L81.8413114,18.8089431 C82.1435994,18.8089431 82.4458873,18.695122 82.6877177,18.495935 L83.5643527,17.6707317 C84.0177846,17.2439024 84.7735045,17.2439024 85.2269364,17.6707317 C85.6803683,18.1260163 85.6803683,18.8373984 85.2269364,19.2642276" id="Fill-13"></path>
                    <path d="M97.6209358,15.8137652 L97.6209358,15.7004049 C97.6209358,15.2186235 97.2290899,14.8502024 96.753277,14.8785425 L91.1834678,15.2753036 C90.9875449,15.2753036 90.791622,15.3603239 90.679666,15.5020243 L90.3158091,15.8704453 C90.1758642,16.0121457 90.0639082,16.2388664 90.0639082,16.465587 L90.0639082,17.4291498 C90.0639082,17.6558704 90.1478752,17.854251 90.3158091,18.0242915 L90.8755889,18.5910931 C91.0155339,18.7327935 91.2394458,18.8461538 91.4633577,18.8461538 L94.6541027,18.8461538 C94.8780146,18.8461538 95.0739376,18.7611336 95.2418715,18.5910931 L97.4250128,16.3805668 C97.5369688,16.2672065 97.6209358,16.0404858 97.6209358,15.8137652 M100,9.8340081 L100,20.1497976 C100,20.6032389 99.6361431,20.9716599 99.1883193,20.9716599 L98.6285394,20.9716599 C98.1807156,20.9716599 97.8448477,20.6315789 97.8168587,20.1781377 C97.7888697,19.4696356 96.921211,19.1295547 96.4174092,19.6396761 L95.3258385,20.7449393 C95.1858935,20.8866397 94.9619816,21 94.7380697,21 L90.3437981,21 C90.1198862,21 89.9239632,20.9149798 89.7560293,20.7449393 L87.8807669,18.8461538 C87.7408219,18.7044534 87.628866,18.4777328 87.628866,18.2510121 L87.628866,15.6720648 C87.628866,15.4453441 87.712833,15.2469636 87.8807669,15.0769231 L89.4761394,13.4615385 C89.6160843,13.3198381 89.8120073,13.2348178 90.0079302,13.2348178 L96.809255,12.7530364 C97.2290899,12.7246964 97.5649578,12.3562753 97.5649578,11.9311741 L97.5649578,10.7125506 C97.5649578,10.48583 97.4809908,10.2874494 97.3130569,10.1174089 L96.5573541,9.35222672 C96.4174092,9.21052632 96.1934972,9.09716599 95.9695853,9.09716599 L91.7152587,9.09716599 C91.4913467,9.09716599 91.2954238,9.18218623 91.1274899,9.35222672 L90.0918972,10.4008097 C89.7840183,10.7125506 89.2522275,10.7125506 88.9443486,10.4008097 L88.5525027,10.0040486 C88.2446238,9.69230769 88.2446238,9.15384615 88.5525027,8.84210526 L90.1198862,7.25506073 C90.2598311,7.11336032 90.4837431,7 90.707655,7 L97.1731119,7 C97.3970238,7 97.5929468,7.08502024 97.7608807,7.25506073 L99.7201101,9.2388664 C99.916033,9.40890688 100,9.60728745 100,9.8340081" id="Fill-15"></path>
                </g>
            </g>
        </g>
    </g>
</svg>