<?xml version="1.0" encoding="UTF-8"?>
<svg width="116px" height="41px" viewBox="0 0 116 41" version="1.1" xmlns="http://www.w3.org/2000/svg" xmlns:xlink="http://www.w3.org/1999/xlink">
    <title>loterie_romande_black</title>
    <g id="Page-1" stroke="none" stroke-width="1" fill="none" fill-rule="evenodd">
        <g id="Medium" transform="translate(-665.000000, -3687.000000)" fill="#FFFFFF" fill-rule="nonzero">
            <g id="Group-3" transform="translate(0.000000, 3371.000000)">
                <g id="loterie_romande_black" transform="translate(665.000000, 316.000000)">
                    <path d="M8.4917975,18.6533401 C8.4917975,14.1093117 12.0931381,10.3952429 16.5334274,10.3952429 C20.9737167,10.3952429 24.5955195,14.1093117 24.5955195,18.6533401 C24.5955195,23.1973684 20.9737167,26.8907748 16.5334274,26.8907748 C12.1136003,26.9114372 8.4917975,23.1973684 8.4917975,18.6533401 Z M116,0 L116,41 L0,41 L0,0 L116,0 Z M3.82642441,16.0182186 C3.82642441,23.1558704 9.51490563,28.9448381 16.5538896,28.9448381 C23.5928735,28.9448381 29.2813547,23.1558704 29.2813547,16.0182186 C29.2813547,8.85981781 23.5928735,3.0708502 16.5538896,3.0708502 C9.51490563,3.0708502 3.82642441,8.85981781 3.82642441,16.0182186 Z M0.879872993,6.63967611 C2.1894514,4.35728745 3.99012171,2.40688259 6.09772447,0.892206478 L0.879872993,0.892206478 L0.879872993,6.63967611 Z M115.120127,0.892206478 L27.0100547,0.892206478 C31.6958899,4.23279352 34.7447522,9.75202429 34.7447522,16.0182186 C34.7447522,26.2267206 26.6008114,34.5055668 16.5538896,34.5055668 C9.88322455,34.5055668 4.0515082,30.8537449 0.879872993,25.3967611 L0.879872993,40.1077935 L115.120127,40.1077935 L115.120127,0.892206478 Z M51.6055742,8.27884615 L54.8181337,8.27884615 L54.8181337,15.1052632 L57.9693068,15.1052632 L57.9693068,17.8856275 L51.6055742,17.8856275 L51.6055742,8.27884615 L51.6055742,8.27884615 Z M59.13565,13.0303644 C59.13565,12.2626518 59.2788852,11.5571862 59.5448933,10.9347166 C59.8109014,10.312247 60.1792203,9.79352227 60.6498501,9.35779352 C61.1204798,8.92206478 61.6729582,8.59008097 62.3277474,8.36184211 C62.9620744,8.13360324 63.657788,8.00910931 64.414888,8.00910931 C65.171988,8.00910931 65.8677015,8.13360324 66.5020286,8.36184211 C67.1363556,8.59008097 67.7092962,8.94281377 68.1799259,9.35779352 C68.6505557,9.79352227 69.0188746,10.312247 69.2848827,10.9347166 C69.5508908,11.5571862 69.6941259,12.2626518 69.6941259,13.0303644 C69.6941259,13.7980769 69.5508908,14.5035425 69.2848827,15.1467611 C69.0188746,15.7899798 68.6505557,16.3294534 68.1799259,16.7651822 C67.7092962,17.2216599 67.1568178,17.5536437 66.5020286,17.8026316 C65.8677015,18.0516194 65.1515258,18.1761134 64.414888,18.1761134 C63.657788,18.1761134 62.9620744,18.0516194 62.3277474,17.8026316 C61.6934204,17.5536437 61.1204798,17.2216599 60.6498501,16.7651822 C60.1792203,16.3087045 59.8109014,15.7692308 59.5448933,15.1467611 C59.2788852,14.5035425 59.13565,13.7980769 59.13565,13.0303644 Z M62.532369,13.0303644 C62.532369,13.3415992 62.5732933,13.632085 62.6756042,13.9018219 C62.777915,14.1715587 62.900688,14.3997976 63.0643853,14.5865385 C63.2280826,14.7732794 63.4327042,14.9185223 63.657788,15.0222672 C63.8828718,15.1260121 64.1488799,15.1882591 64.414888,15.1882591 C64.6808961,15.1882591 64.9264421,15.1467611 65.1515258,15.0222672 C65.3766096,14.9185223 65.5812313,14.7732794 65.7449286,14.5865385 C65.9086259,14.3997976 66.051861,14.1715587 66.1337096,13.9018219 C66.2360205,13.632085 66.2769448,13.3415992 66.2769448,13.0303644 C66.2769448,12.7191296 66.2360205,12.4493927 66.1337096,12.1796559 C66.0313988,11.930668 65.9086259,11.7024291 65.7449286,11.5364372 C65.5812313,11.3704453 65.3766096,11.2252024 65.1515258,11.1214575 C64.9264421,11.0177126 64.6808961,10.9762146 64.414888,10.9762146 C64.1488799,10.9762146 63.9033339,11.0177126 63.657788,11.1214575 C63.4327042,11.2252024 63.2280826,11.3704453 63.0643853,11.5364372 C62.900688,11.7024291 62.777915,11.930668 62.6756042,12.1796559 C62.5937555,12.4493927 62.532369,12.7191296 62.532369,13.0303644 Z M76.2624802,17.9063765 L73.0703828,17.9063765 L73.0703828,10.9969636 L70.7376962,10.9969636 L70.7376962,8.27884615 L78.5951667,8.27884615 L78.5951667,10.9969636 L76.2624802,10.9969636 L76.2624802,17.9063765 Z M80.3549127,8.27884615 L86.8823426,8.27884615 L86.8823426,10.9762146 L83.3628506,10.9762146 L83.3628506,11.8061741 L86.6777209,11.8061741 L86.6777209,14.3168016 L83.3628506,14.3168016 L83.3628506,15.2090081 L87.1278885,15.2090081 L87.1278885,17.9063765 L80.3753748,17.9063765 L80.3753748,8.27884615 L80.3549127,8.27884615 Z M89.2354913,8.27884615 L93.3279238,8.27884615 C93.7985535,8.27884615 94.2487211,8.32034413 94.7193509,8.42408907 C95.1899806,8.52783401 95.5992238,8.69382591 95.9470806,8.92206478 C96.3153995,9.17105263 96.6018698,9.48228745 96.8269536,9.89726721 C97.0520374,10.291498 97.1543482,10.8102227 97.1543482,11.4119433 C97.1543482,11.992915 97.0111131,12.5116397 96.7246428,12.9681174 C96.4381725,13.4245951 96.0289293,13.7565789 95.496913,14.0055668 L97.9114482,17.9063765 L94.2487211,17.9063765 L92.4275886,14.4620445 L92.3252778,14.4620445 L92.3252778,17.9063765 L89.2354913,17.9063765 L89.2354913,8.27884615 L89.2354913,8.27884615 Z M92.3048157,12.3456478 L92.9391427,12.3456478 C93.0414535,12.3456478 93.1642265,12.3456478 93.2869995,12.3248988 C93.4097724,12.3041498 93.5325454,12.2626518 93.6553184,12.2004049 C93.7576292,12.1381579 93.85994,12.0551619 93.9417887,11.951417 C94.0236373,11.8476721 94.0645617,11.7024291 94.0645617,11.5364372 C94.0645617,11.3704453 94.0236373,11.2252024 93.9622508,11.1214575 C93.9008643,11.0177126 93.8190157,10.9554656 93.7167049,10.8932186 C93.6143941,10.8517206 93.5120833,10.8102227 93.4097724,10.7894737 C93.2869995,10.7687247 93.1846887,10.7687247 93.0823778,10.7687247 L92.3252778,10.7687247 L92.3252778,12.3456478 L92.3048157,12.3456478 Z M99.0982537,8.27884615 L102.310813,8.27884615 L102.310813,17.9063765 L99.0982537,17.9063765 L99.0982537,8.27884615 Z M104.336567,8.27884615 L110.863997,8.27884615 L110.863997,10.9762146 L107.344505,10.9762146 L107.344505,11.8061741 L110.659376,11.8061741 L110.659376,14.3168016 L107.344505,14.3168016 L107.344505,15.2090081 L111.109543,15.2090081 L111.109543,17.9063765 L104.357029,17.9063765 L104.357029,8.27884615 L104.336567,8.27884615 Z M37.4048333,22.3259109 L41.4768037,22.3259109 C41.9474334,22.3259109 42.397601,22.3674089 42.8682307,22.4711538 C43.3183983,22.5748988 43.7276416,22.7408907 44.0959605,22.9691296 C44.4642794,23.2181174 44.7507497,23.5293522 44.9758335,23.944332 C45.2009173,24.3385628 45.3032281,24.8572874 45.3032281,25.4590081 C45.3032281,26.0399798 45.1599929,26.5587045 44.8735227,27.0151822 C44.5870524,27.4716599 44.1778091,27.8036437 43.6457929,28.0526316 L46.0398659,31.9534413 L42.3771388,31.9534413 L40.5560064,28.5298583 L40.4536955,28.5298583 L40.4536955,31.9534413 L37.363909,31.9534413 L37.363909,22.3259109 L37.4048333,22.3259109 Z M40.4741577,26.3719636 L41.0880226,26.3719636 C41.1903334,26.3719636 41.3131064,26.3719636 41.4358793,26.3512146 C41.5586523,26.3304656 41.6814253,26.2889676 41.7837361,26.2267206 C41.8860469,26.1644737 41.9883577,26.0814777 42.0702064,25.9777328 C42.152055,25.8739879 42.1725172,25.7287449 42.1725172,25.562753 C42.1725172,25.3967611 42.1315929,25.2515182 42.0702064,25.1477733 C42.0088199,25.0440283 41.9269712,24.9817814 41.8246604,24.9195344 C41.7223496,24.8780364 41.6200388,24.8365385 41.4972658,24.8157895 C41.3744929,24.7950405 41.272182,24.7950405 41.1698712,24.7950405 L40.4127712,24.7950405 L40.4127712,26.3719636 L40.4741577,26.3719636 Z M46.5718822,27.0774291 C46.5718822,26.3097166 46.7151173,25.625 46.9811254,25.0025304 C47.2471335,24.3800607 47.6154525,23.861336 48.0860822,23.4256073 C48.5567119,22.9898785 49.1091903,22.6578947 49.7435174,22.4296559 C50.3778444,22.201417 51.0940201,22.0769231 51.830658,22.0769231 C52.587758,22.0769231 53.2834715,22.201417 53.9177986,22.4296559 C54.5521256,22.6578947 55.1250661,22.9898785 55.5956959,23.4256073 C56.0663256,23.861336 56.4346446,24.3800607 56.7006527,25.0025304 C56.9666608,25.625 57.1098959,26.3097166 57.1098959,27.0774291 C57.1098959,27.8451417 56.9666608,28.5506073 56.7006527,29.1730769 C56.4346446,29.8162955 56.0663256,30.3557692 55.5956959,30.791498 C55.1250661,31.2479757 54.5725878,31.5799595 53.9177986,31.8289474 C53.2834715,32.0779352 52.587758,32.2024291 51.830658,32.2024291 C51.0735579,32.2024291 50.3778444,32.0779352 49.7435174,31.8289474 C49.1091903,31.5799595 48.5567119,31.2479757 48.0860822,30.791498 C47.6154525,30.3350202 47.2471335,29.7955466 46.9811254,29.1730769 C46.6946551,28.5506073 46.5718822,27.8451417 46.5718822,27.0774291 Z M49.948139,27.0774291 C49.948139,27.388664 49.9890633,27.6791498 50.0913741,27.9488866 C50.193685,28.2186235 50.3164579,28.4468623 50.4801552,28.6336032 C50.6438525,28.8203441 50.8484742,28.965587 51.0735579,29.069332 C51.2986417,29.1730769 51.5646499,29.2353239 51.830658,29.2353239 C52.0966661,29.2353239 52.342212,29.1730769 52.5672958,29.069332 C52.7923796,28.965587 52.9970012,28.8203441 53.1606985,28.6336032 C53.3243958,28.4468623 53.467631,28.2186235 53.5494796,27.9488866 C53.6313283,27.6791498 53.6927148,27.388664 53.6927148,27.0774291 C53.6927148,26.7661943 53.6517904,26.4964575 53.5494796,26.2267206 C53.4471688,25.9777328 53.3243958,25.7494939 53.1606985,25.583502 C52.9970012,25.4175101 52.7923796,25.2722672 52.5672958,25.1685223 C52.342212,25.0647773 52.0966661,25.0232794 51.830658,25.0232794 C51.5646499,25.0232794 51.3191039,25.0647773 51.0735579,25.1685223 C50.8484742,25.2722672 50.6438525,25.4175101 50.4801552,25.583502 C50.3164579,25.7702429 50.193685,25.9777328 50.0913741,26.2267206 C49.9890633,26.4757085 49.948139,26.7661943 49.948139,27.0774291 Z M61.2637149,26.4964575 L61.4069501,31.9326923 L58.4399365,31.9326923 L58.4399365,22.3259109 L62.6142177,22.3259109 L64.3330393,27.4924089 L64.3944258,27.4924089 L65.8881637,22.3259109 L70.1852179,22.3259109 L70.1852179,31.9326923 L67.0749691,31.9326923 L67.1772799,26.5379555 L67.0954313,26.5172065 L65.3356853,31.9326923 L63.0848474,31.9326923 L61.3455636,26.4964575 L61.2637149,26.4964575 L61.2637149,26.4964575 Z M75.0347504,22.3259109 L78.4110072,22.3259109 L82.0941965,31.9326923 L78.636091,31.9326923 L78.1449991,30.5217611 L75.1370612,30.5217611 L74.6664315,31.9326923 L71.2901746,31.9326923 L75.0347504,22.3259109 Z M76.6717234,25.666498 L75.8941612,28.0526316 L77.4288234,28.0526316 L76.6717234,25.666498 Z M83.2400776,22.3259109 L86.4117128,22.3259109 L89.1127183,27.2019231 L89.1741048,27.2019231 L89.0513318,22.3259109 L92.0797319,22.3259109 L92.0797319,31.9326923 L88.8057859,31.9326923 L86.186629,27.347166 L86.1252425,27.347166 L86.2684777,31.9326923 L83.2400776,31.9326923 L83.2400776,22.3259109 L83.2400776,22.3259109 Z M93.8190157,31.9326923 L93.8190157,22.3259109 L97.3589698,22.3259109 C98.1160699,22.3259109 98.8322455,22.4089069 99.5074969,22.5541498 C100.182748,22.6993927 100.796613,22.9691296 101.308167,23.3218623 C101.840183,23.6953441 102.249427,24.1725709 102.556359,24.7742915 C102.863292,25.3760121 103.026989,26.1437247 103.026989,27.0566802 C103.026989,27.9073887 102.883754,28.6336032 102.576821,29.2353239 C102.269889,29.8577935 101.881108,30.3557692 101.369554,30.75 C100.878462,31.1442308 100.285059,31.4347166 99.6507321,31.6214575 C98.9959428,31.8081984 98.3206915,31.9119433 97.624978,31.9119433 L93.8190157,31.9119433 L93.8190157,31.9326923 Z M96.8883401,25.0647773 L96.8883401,29.1523279 L97.4817428,29.1523279 C98.2388428,29.1523279 98.8117834,28.986336 99.2005645,28.6543522 C99.6098077,28.3223684 99.7939672,27.7828947 99.7939672,27.0359312 C99.7939672,26.4134615 99.5893456,25.9362348 99.2005645,25.583502 C98.7913212,25.2307692 98.259305,25.0647773 97.5840536,25.0647773 L96.8883401,25.0647773 L96.8883401,25.0647773 Z M104.357029,22.3259109 L110.863997,22.3259109 L110.863997,25.0025304 L107.344505,25.0025304 L107.344505,25.8324899 L110.638913,25.8324899 L110.638913,28.3431174 L107.344505,28.3431174 L107.344505,29.2353239 L111.109543,29.2353239 L111.109543,31.9119433 L104.357029,31.9119433 L104.357029,22.3259109 Z" id="Shape"></path>
                </g>
            </g>
        </g>
    </g>
</svg>