<?xml version="1.0" encoding="UTF-8"?>
<svg width="130px" height="27px" viewBox="0 0 130 27" version="1.1" xmlns="http://www.w3.org/2000/svg" xmlns:xlink="http://www.w3.org/1999/xlink">
    <title>logo</title>
    <g id="Page-1" stroke="none" stroke-width="1" fill="none" fill-rule="evenodd">
        <g id="Medium" transform="translate(-30.000000, -40.000000)" fill="#151515">
            <g id="logo" transform="translate(30.000000, 40.000000)">
                <path d="M12.9230769,14.9755601 L12.9230769,14.4256619 C12.9230769,14.0590631 12.7782805,13.6924644 12.5248869,13.3991853 L11.2579186,12.1527495 C11.0045249,11.8961303 10.6425339,11.7494908 10.2443439,11.7494908 L5.71945701,11.7494908 C5.35746606,11.7494908 4.99547511,11.8961303 4.70588235,12.1527495 L3.47511312,13.3991853 C3.22171946,13.6558045 3.07692308,14.0224033 3.07692308,14.4256619 L3.07692308,14.9755601 C3.07692308,15.7820774 3.72850679,16.4052953 4.48868778,16.4052953 L11.5113122,16.4052953 C12.2714932,16.4419552 12.9230769,15.7820774 12.9230769,14.9755601 M16,13.3991853 L16,17.688391 C16,18.4949084 15.3484163,19.1181263 14.5882353,19.1181263 L4.48868778,19.1181263 C3.69230769,19.1181263 3.07692308,19.7780041 3.07692308,20.5478615 L3.07692308,21.5743381 C3.07692308,21.9409369 3.22171946,22.3075356 3.47511312,22.6008147 L4.70588235,23.8472505 C4.95927602,24.1038697 5.32126697,24.2505092 5.71945701,24.2505092 L10.8597285,24.2505092 C11.2217195,24.2505092 11.5837104,24.1038697 11.8733032,23.8472505 L12.959276,22.7474542 C13.5022624,22.197556 14.4072398,22.197556 14.9502262,22.7474542 C15.4932127,23.2973523 15.4932127,24.2138493 14.9502262,24.7637475 L13.1402715,26.5967413 C12.8868778,26.8533605 12.5248869,27 12.1266968,27 L4.3438914,27 C3.98190045,27 3.6199095,26.8533605 3.33031674,26.5967413 L0.398190045,23.6272912 C0.14479638,23.3706721 0,23.0040733 0,22.6374745 L0,13.3991853 C0,13.0325866 0.14479638,12.6659878 0.398190045,12.3727088 L3.33031674,9.40325866 C3.58371041,9.14663951 3.94570136,9 4.3438914,9 L11.6199095,9 C11.9819005,9 12.3438914,9.14663951 12.6334842,9.40325866 L15.5656109,12.3727088 C15.8190045,12.6659878 16,13.0325866 16,13.3991853" id="Fill-1"></path>
                <path d="M22.5006736,9.19525802 L22.5006736,9.19525802 C23.3217333,9.19525802 24,9.88423989 24,10.7182706 L24,25.4769874 C24,26.3110181 23.3217333,27 22.5006736,27 C21.6796139,27 21.0013472,26.3110181 21.0013472,25.4769874 L21.0013472,10.7182706 C20.9656489,9.88423989 21.6439156,9.19525802 22.5006736,9.19525802 M22.5006736,1 L22.5006736,1 C23.3217333,1 24,1.68898187 24,2.52301255 L24,3.42956764 C24,4.26359833 23.3217333,4.9525802 22.5006736,4.9525802 C21.6796139,4.9525802 21.0013472,4.26359833 21.0013472,3.42956764 L21.0013472,2.52301255 C20.9656489,1.68898187 21.6439156,1 22.5006736,1" id="Fill-3"></path>
                <path d="M40.0880423,26.553719 L33.9644946,20.714876 C33.0101754,19.785124 31.340117,20.4545455 31.340117,21.7190083 L31.340117,25.5867769 C31.340117,26.3677686 30.6641409,27 29.8291117,27 L29.5110053,27 C28.6759761,27 28,26.3677686 28,25.5867769 L28,1.41322314 C28,0.632231405 28.6759761,0 29.5110053,0 L29.8291117,0 C30.6641409,0 31.340117,0.632231405 31.340117,1.41322314 L31.340117,13.6859504 C31.340117,14.9504132 33.0101754,15.6198347 33.9644946,14.6900826 L39.8096993,9.11157025 C40.0880423,8.85123967 40.4856753,8.66528926 40.8833083,8.66528926 C42.2352604,8.66528926 42.9112364,10.1900826 41.9569173,11.0826446 L36.2310025,16.5867769 C35.6345531,17.1446281 35.6345531,18.0371901 36.2310025,18.5950413 L42.5533668,24.5454545 C43.5076859,25.4380165 42.8317099,26.9628099 41.4797577,26.9628099 L41.2014147,26.9628099 C40.7640184,27 40.4061487,26.8512397 40.0880423,26.553719" id="Fill-5"></path>
                <path d="M59.9454545,20.7183673 L59.9454545,15.2816327 C59.9454545,14.3265306 59.5818182,13.444898 58.9272727,12.7836735 C58.2363636,12.122449 57.3636364,11.755102 56.4181818,11.755102 L53.5454545,11.755102 C52.6,11.755102 51.7272727,12.122449 51.0727273,12.7836735 C50.4181818,13.444898 50.0545455,14.3632653 50.0545455,15.2816327 L50.0545455,20.7183673 C50.0545455,21.6734694 50.4181818,22.555102 51.0727273,23.2163265 C51.7272727,23.877551 52.6363636,24.244898 53.5454545,24.244898 L56.4181818,24.244898 C57.3636364,24.244898 58.2363636,23.877551 58.8909091,23.2163265 C59.5818182,22.555102 59.9454545,21.6367347 59.9454545,20.7183673 M63,14.2530612 L63,21.7469388 C63,22.7020408 62.6363636,23.5836735 61.9818182,24.244898 L60.2727273,25.9714286 C59.6181818,26.6326531 58.7090909,27 57.8,27 L52.2,27 C51.2545455,27 50.3818182,26.6326531 49.7272727,25.9714286 L48.0181818,24.244898 C47.3636364,23.5836735 47,22.6653061 47,21.7469388 L47,14.2530612 C47,13.2979592 47.3636364,12.4163265 48.0181818,11.755102 L49.7272727,10.0285714 C50.3818182,9.36734694 51.2909091,9 52.2,9 L57.8,9 C58.7454545,9 59.6181818,9.36734694 60.2727273,10.0285714 L61.9818182,11.755102 C62.6363636,12.4163265 63,13.2979592 63,14.2530612" id="Fill-7"></path>
                <path d="M83,12.6437247 L83,25.9068826 C83,26.4898785 82.5128806,26.9635628 81.9133489,26.9635628 L80.9016393,26.9635628 C80.3021077,26.9635628 79.8149883,26.4898785 79.8149883,25.9068826 L79.8149883,13.8097166 C79.8149883,13.5182186 79.7025761,13.2631579 79.4777518,13.0445344 L78.5035129,12.097166 C78.3161593,11.9149798 78.0163934,11.7692308 77.7166276,11.7692308 L74.1943794,11.7692308 C73.8946136,11.7692308 73.6323185,11.8785425 73.4074941,12.097166 L70.5222482,14.902834 C70.3348946,15.0850202 70.1850117,15.3765182 70.1850117,15.6680162 L70.1850117,25.9433198 C70.1850117,26.5263158 69.6978923,27 69.0983607,27 L68.0866511,27 C67.4871194,27 67,26.5263158 67,25.9433198 L67,10.0931174 C67,9.51012146 67.4871194,9.03643725 68.0866511,9.03643725 L68.8360656,9.03643725 C69.4355972,9.03643725 69.8852459,9.47368421 69.9227166,10.0566802 C69.9601874,10.9676113 71.1217799,11.4048583 71.7962529,10.7489879 L73.2576112,9.32793522 C73.4449649,9.14574899 73.7447307,9 74.0444965,9 L79.2529274,9 C79.5526932,9 79.8149883,9.10931174 80.0398126,9.32793522 L82.6627635,11.8785425 C82.8875878,12.097166 83,12.3522267 83,12.6437247" id="Fill-9"></path>
                <path d="M89.5,9.19525802 L89.5,9.19525802 C90.3214286,9.19525802 91,9.88423989 91,10.7182706 L91,25.4769874 C91,26.3110181 90.3214286,27 89.5,27 C88.6785714,27 88,26.3110181 88,25.4769874 L88,10.7182706 C88,9.88423989 88.6785714,9.19525802 89.5,9.19525802 M89.5,1 L89.5,1 C90.3214286,1 91,1.68898187 91,2.52301255 L91,3.42956764 C91,4.26359833 90.3214286,4.9525802 89.5,4.9525802 C88.6785714,4.9525802 88,4.26359833 88,3.42956764 L88,2.52301255 C88,1.68898187 88.6785714,1 89.5,1" id="Fill-11"></path>
                <path d="M110.560171,24.7682927 L108.605376,26.597561 C108.331704,26.8536585 107.940745,27 107.51069,27 L99.6915089,27 C99.3005498,27 98.9095907,26.8536585 98.5968235,26.597561 L95.430055,23.6341463 C95.1563836,23.3780488 95,23.0121951 95,22.6097561 L95,13.3902439 C95,13.0243902 95.1563836,12.6585366 95.430055,12.3658537 L98.5968235,9.40243902 C98.8704948,9.14634146 99.2614539,9 99.6915089,9 L107.315211,9 C107.70617,9 108.097129,9.14634146 108.409896,9.40243902 L110.364692,11.2317073 C110.95113,11.7804878 110.95113,12.695122 110.364692,13.2439024 C109.778253,13.7926829 108.800855,13.7926829 108.214417,13.2439024 L107.080635,12.1829268 C106.806964,11.9268293 106.416005,11.7804878 105.98595,11.7804878 L101.177153,11.7804878 C100.786194,11.7804878 100.395235,11.9268293 100.082468,12.1829268 L98.792303,13.3902439 C98.5186316,13.6463415 98.362248,14.0121951 98.362248,14.4146341 L98.362248,21.5487805 C98.362248,21.9146341 98.5186316,22.2804878 98.792303,22.5731707 L100.082468,23.7804878 C100.356139,24.0365854 100.747098,24.1829268 101.177153,24.1829268 L106.181429,24.1829268 C106.572389,24.1829268 106.963348,24.0365854 107.276115,23.7804878 L108.409896,22.7195122 C108.996335,22.1707317 109.973732,22.1707317 110.560171,22.7195122 C111.14661,23.304878 111.14661,24.2195122 110.560171,24.7682927" id="Fill-13"></path>
                <path d="M126.923077,20.3319838 L126.923077,20.1862348 C126.923077,19.5668016 126.41629,19.0931174 125.800905,19.1295547 L118.597285,19.6396761 C118.343891,19.6396761 118.090498,19.7489879 117.945701,19.9311741 L117.475113,20.4048583 C117.294118,20.5870445 117.149321,20.8785425 117.149321,21.1700405 L117.149321,22.4089069 C117.149321,22.7004049 117.257919,22.9554656 117.475113,23.1740891 L118.199095,23.902834 C118.38009,24.0850202 118.669683,24.2307692 118.959276,24.2307692 L123.085973,24.2307692 C123.375566,24.2307692 123.628959,24.1214575 123.846154,23.902834 L126.669683,21.0607287 C126.81448,20.9149798 126.923077,20.6234818 126.923077,20.3319838 M130,12.6437247 L130,25.9068826 C130,26.4898785 129.529412,26.9635628 128.950226,26.9635628 L128.226244,26.9635628 C127.647059,26.9635628 127.21267,26.5263158 127.176471,25.9433198 C127.140271,25.0323887 126.0181,24.5951417 125.366516,25.2510121 L123.954751,26.6720648 C123.773756,26.854251 123.484163,27 123.19457,27 L117.511312,27 C117.221719,27 116.968326,26.8906883 116.751131,26.6720648 L114.325792,24.2307692 C114.144796,24.048583 114,23.757085 114,23.465587 L114,20.1497976 C114,19.8582996 114.108597,19.6032389 114.325792,19.3846154 L116.38914,17.3076923 C116.570136,17.1255061 116.823529,17.0161943 117.076923,17.0161943 L125.873303,16.3967611 C126.41629,16.3603239 126.850679,15.8866397 126.850679,15.340081 L126.850679,13.7732794 C126.850679,13.4817814 126.742081,13.2267206 126.524887,13.0080972 L125.547511,12.0242915 C125.366516,11.8421053 125.076923,11.6963563 124.78733,11.6963563 L119.285068,11.6963563 C118.995475,11.6963563 118.742081,11.805668 118.524887,12.0242915 L117.18552,13.3724696 C116.78733,13.7732794 116.099548,13.7732794 115.701357,13.3724696 L115.19457,12.8623482 C114.79638,12.4615385 114.79638,11.7692308 115.19457,11.3684211 L117.221719,9.32793522 C117.402715,9.14574899 117.692308,9 117.9819,9 L126.343891,9 C126.633484,9 126.886878,9.10931174 127.104072,9.32793522 L129.638009,11.8785425 C129.891403,12.097166 130,12.3522267 130,12.6437247" id="Fill-15"></path>
            </g>
        </g>
    </g>
</svg>